# xmcd
#
# Track frame offsets: 
#        150
#        16907
#        33591
#        50455
#        62801
#        78892
#        97001
#        114602
#        134356
#        151193
#
# Disc length: 2207 seconds
#
# Revision: 2
# Processed by: cddbd v1.5.2PL0 Copyright (c) Steve Scherf et al.
# Submitted via: ExactAudioCopy v0.95b4
#
DISCID=7b089d0a
DTITLE=Eilleen Shania Twain - Beginnings
DYEAR=2005
DGENRE=Country
TTITLE0=Wild And Wicked
TTITLE1=Send It With Love
TTITLE2=(Don't Gimme That) Once Over
TTITLE3=Bite My Lip
TTITLE4=Luv Eyes
TTITLE5=Hate To Love
TTITLE6=Rhythm Made Me Do It
TTITLE7=I Lost My Heart When I Found You
TTITLE8=Two Hearts One Love
TTITLE9=Half Breed
EXTD=c.2005 BCI - Navarre Corp\nProduced by Paul Sabu\nExecutive Produ
EXTD=cer Dave Geores\nRe-mixes of original recordings made from 1989 -
EXTD=1991
EXTT0=
EXTT1=
EXTT2=
EXTT3=
EXTT4=
EXTT5=
EXTT6=
EXTT7=
EXTT8=
EXTT9=
PLAYORDER=
